<svg width="800" height="500" viewBox="0 0 800 500" fill="none" xmlns="http://www.w3.org/2000/svg">
  <rect width="800" height="500" rx="40" fill="#020617"/>
  <rect x="24" y="24" width="752" height="452" rx="32" fill="#020617" stroke="#1f2937" stroke-width="2" stroke-dasharray="6 8"/>
  <circle cx="122" cy="164" r="72" fill="#020617" stroke="#0ea5e9" stroke-width="3"/>
  <rect x="64" y="290" width="192" height="32" rx="16" fill="#0f172a"/>
  <rect x="64" y="336" width="160" height="20" rx="10" fill="#020617"/>
  <rect x="64" y="364" width="120" height="20" rx="10" fill="#020617"/>
  <rect x="320" y="160" width="280" height="32" rx="16" fill="#020617"/>
  <rect x="320" y="204" width="360" height="16" rx="8" fill="#020617"/>
  <rect x="320" y="228" width="320" height="16" rx="8" fill="#020617"/>
  <rect x="320" y="264" width="200" height="16" rx="8" fill="#020617"/>
  <rect x="320" y="344" width="120" height="36" rx="18" fill="#0f172a"/>
  <rect x="460" y="344" width="140" height="36" rx="18" fill="#0f172a"/>
  <text x="90" y="170" fill="#e5e7eb" font-family="system-ui, -apple-system, BlinkMacSystemFont, 'SF Pro Text', sans-serif" font-size="18" letter-spacing="3">WB</text>
  <text x="332" y="182" fill="#e5e7eb" font-family="system-ui, -apple-system, BlinkMacSystemFont, 'SF Pro Text', sans-serif" font-size="14" letter-spacing="4">WASHNGO BILCENTER</text>
  <text x="332" y="222" fill="#9ca3af" font-family="system-ui, -apple-system, BlinkMacSystemFont, 'SF Pro Text', sans-serif" font-size="13">Bilplejeprodukt – billede kan udskiftes senere</text>
</svg>
